<svg width="359" height="101" viewBox="0 0 359 101" fill="none" xmlns="http://www.w3.org/2000/svg">
<path d="M139.008 62C134.379 62 130.997 60.9333 128.864 58.8C126.731 56.6667 125.664 53.2853 125.664 48.656V22.448C125.664 21.936 125.813 21.5307 126.112 21.232C126.432 20.912 126.848 20.752 127.36 20.752C127.872 20.752 128.277 20.912 128.576 21.232C128.875 21.5307 129.024 21.936 129.024 22.448V48.656C129.024 51.1307 129.344 53.0933 129.984 54.544C130.624 55.9947 131.669 57.04 133.12 57.68C134.571 58.32 136.533 58.64 139.008 58.64H146.688C149.141 58.64 151.093 58.32 152.544 57.68C153.995 57.04 155.04 55.9947 155.68 54.544C156.32 53.0933 156.64 51.1307 156.64 48.656V22.448C156.64 21.936 156.789 21.5307 157.088 21.232C157.408 20.912 157.824 20.752 158.336 20.752C158.848 20.752 159.253 20.912 159.552 21.232C159.851 21.5307 160 21.936 160 22.448V48.656C160 53.2853 158.933 56.6667 156.8 58.8C154.688 60.9333 151.317 62 146.688 62H139.008ZM184.152 62C179.522 62 176.141 60.9333 174.008 58.8C171.874 56.6667 170.808 53.2853 170.808 48.656V34.064C170.808 29.392 171.874 26 174.008 23.888C176.141 21.7547 179.501 20.7093 184.088 20.752H191.832C196.461 20.752 199.832 21.8187 201.944 23.952C204.077 26.0853 205.144 29.4667 205.144 34.096V48.656C205.144 53.2853 204.077 56.6667 201.944 58.8C199.832 60.9333 196.461 62 191.832 62H184.152ZM184.152 58.64H191.832C194.285 58.64 196.237 58.32 197.688 57.68C199.138 57.04 200.184 55.9947 200.824 54.544C201.464 53.0933 201.784 51.1307 201.784 48.656V34.096C201.784 31.6427 201.464 29.6907 200.824 28.24C200.184 26.7893 199.138 25.744 197.688 25.104C196.237 24.4427 194.285 24.112 191.832 24.112H184.088C181.634 24.0907 179.682 24.4 178.232 25.04C176.802 25.6587 175.768 26.704 175.128 28.176C174.488 29.6267 174.168 31.5893 174.168 34.064V48.656C174.168 51.1307 174.488 53.0933 175.128 54.544C175.768 55.9947 176.813 57.04 178.264 57.68C179.714 58.32 181.677 58.64 184.152 58.64ZM225.864 62.032C225.352 62.032 224.936 61.8827 224.616 61.584C224.317 61.2853 224.168 60.88 224.168 60.368V24.08H210.568C210.056 24.08 209.64 23.9307 209.32 23.632C209.021 23.3333 208.872 22.928 208.872 22.416C208.872 21.904 209.021 21.4987 209.32 21.2C209.64 20.88 210.056 20.72 210.568 20.72H241.16C241.672 20.72 242.077 20.88 242.376 21.2C242.674 21.4987 242.824 21.904 242.824 22.416C242.824 22.928 242.674 23.3333 242.376 23.632C242.077 23.9307 241.672 24.08 241.16 24.08H227.528V60.368C227.528 60.8587 227.368 61.264 227.048 61.584C226.749 61.8827 226.354 62.032 225.864 62.032ZM251.68 62C250.549 62 249.984 61.4347 249.984 60.304V22.448C249.984 21.3173 250.549 20.752 251.68 20.752H275.648C276.779 20.752 277.344 21.3173 277.344 22.448C277.344 23.5573 276.779 24.112 275.648 24.112H253.344V39.44H268.096C269.227 39.44 269.792 39.9947 269.792 41.104C269.792 42.2347 269.227 42.8 268.096 42.8H253.344V58.64H275.648C276.779 58.64 277.344 59.1947 277.344 60.304C277.344 61.4347 276.779 62 275.648 62H251.68ZM283.331 61.616C282.435 60.976 282.286 60.1973 282.883 59.28L295.747 40.496L283.587 23.472C282.947 22.5973 283.086 21.8187 284.003 21.136C284.899 20.496 285.688 20.6347 286.371 21.552L297.955 37.808L309.955 21.52C310.638 20.624 311.427 20.5067 312.323 21.168C313.219 21.8293 313.336 22.608 312.675 23.504L300.067 40.752L313.315 59.248C313.955 60.144 313.816 60.9333 312.899 61.616C312.003 62.256 311.235 62.1173 310.595 61.2L297.827 43.408L285.667 61.168C285.027 62.0853 284.248 62.2347 283.331 61.616Z" fill="#434343"/>
<path d="M0 7.6875C0 5.6375 0.76875 3.84375 2.30625 2.30625C3.84375 0.76875 5.6375 0 7.6875 0L94.8125 0C96.8625 0 98.6562 0.76875 100.194 2.30625C101.731 3.84375 102.5 5.6375 102.5 7.6875V53.9406L74.4406 82H7.6875C5.6375 82 3.84375 81.2312 2.30625 79.6937C0.76875 78.1562 0 76.3625 0 74.3125L0 7.6875ZM70.9812 50.0969H94.8125V7.6875H7.6875V74.3125H70.9812V50.0969Z" fill="#434343"/>
<path d="M120.245 100.259L75.4927 82.631L102.641 55.4971L120.245 100.259Z" fill="#852221"/>
</svg>
