<svg width="121" height="101" viewBox="0 0 121 101" fill="none" xmlns="http://www.w3.org/2000/svg">
<path d="M0 7.6875C0 5.6375 0.76875 3.84375 2.30625 2.30625C3.84375 0.76875 5.6375 0 7.6875 0L94.8125 0C96.8625 0 98.6562 0.76875 100.194 2.30625C101.731 3.84375 102.5 5.6375 102.5 7.6875V53.9406L74.4406 82H7.6875C5.6375 82 3.84375 81.2312 2.30625 79.6937C0.76875 78.1562 0 76.3625 0 74.3125L0 7.6875ZM70.9812 50.0969H94.8125V7.6875H7.6875V74.3125H70.9812V50.0969Z" fill="#434343"/>
<path d="M120.245 100.259L75.4927 82.631L102.641 55.4971L120.245 100.259Z" fill="#852221"/>
</svg>
