<svg width="214" height="226" viewBox="0 0 214 226" fill="none" xmlns="http://www.w3.org/2000/svg">
<path d="M65.907 117.968C62.2129 119.378 60.7723 120.757 59.822 124.729V220.061C61.2564 223.101 62.5508 224.36 64.5548 224.794C66.139 225.06 67.0274 225.173 68.6115 224.794L117.968 175.438H206.539C210.176 174.922 211.833 173.92 213.3 169.353V124.053C212.173 120.293 210.663 118.965 206.539 117.968H65.907Z" fill="#232DB9" stroke="#707994"/>
<path d="M1 110.531C1.90478 115.292 3.02057 117.067 8.09908 117.968H52.0466C56.6323 116.552 57.9387 114.72 59.1457 110.531V61.8503C59.2602 60.1621 59.9181 59.614 61.8502 59.1458L206.539 58.8078C210.581 58.2183 212.087 56.9871 213.3 53.0608V7.76114C212.246 3.81893 210.838 2.19674 206.201 1.33806L52.3847 1C24.7669 5.76236 5.03995 24.5484 1 51.0325L1 110.531Z" fill="#232DB9" stroke="#707994"/>
</svg>
