<svg width="801" height="226" viewBox="0 0 801 226" fill="none" xmlns="http://www.w3.org/2000/svg">
<path d="M65.907 117.968C62.2129 119.378 60.7723 120.757 59.822 124.729V220.061C61.2564 223.101 62.5508 224.36 64.5548 224.794C66.139 225.06 67.0274 225.173 68.6115 224.794L117.968 175.438H206.539C210.176 174.922 211.833 173.92 213.3 169.353V124.053C212.173 120.293 210.663 118.965 206.539 117.968H65.907Z" fill="#232DB9" stroke="#707994"/>
<path d="M1 110.531C1.90478 115.292 3.02057 117.067 8.09908 117.968H52.0466C56.6323 116.552 57.9387 114.72 59.1457 110.531V61.8503C59.2602 60.1621 59.9181 59.614 61.8502 59.1458L206.539 58.8078C210.581 58.2183 212.087 56.9871 213.3 53.0608V7.76114C212.246 3.81893 210.838 2.19674 206.201 1.33806L52.3847 1C24.7669 5.76236 5.03995 24.5484 1 51.0325L1 110.531Z" fill="#232DB9" stroke="#707994"/>
<path d="M241.607 36.7984H363.926V60.778H265.602V108.737H349.529V132.717H265.602V204.538H241.607V36.7984Z" fill="#232DB9"/>
<path d="M419.409 79.9616V204.538H396.35V79.9616H419.409ZM395.179 32.0025H420.58V55.9821H395.179V32.0025Z" fill="#232DB9"/>
<path d="M569.353 204.538H546.294V103.005H482.032V204.538H459.09V79.9616H482.032V101.953C482.188 98.9113 482.891 96.065 484.139 93.4136C485.388 90.6842 487.026 88.3447 489.055 86.3952C491.162 84.3676 493.581 82.808 496.313 81.7162C499.044 80.5465 501.97 79.9616 505.092 79.9616H546.294C549.493 79.9616 552.498 80.5855 555.307 81.8332C558.116 83.0029 560.535 84.6406 562.564 86.7461C564.671 88.7736 566.31 91.1911 567.48 93.9984C568.729 96.8058 569.353 99.8081 569.353 103.005V204.538Z" fill="#232DB9"/>
<path d="M684.416 36.7984L749.146 204.538H725.15L710.284 165.937H634.551L619.686 204.538H595.69L660.42 36.7984H684.416ZM643.682 141.958H701.037L672.476 68.0303L643.682 141.958Z" fill="#232DB9"/>
<path d="M799.829 79.9616V204.538H776.77V79.9616H799.829ZM775.6 32.0025H801V55.9821H775.6V32.0025Z" fill="#232DB9"/>
</svg>
