<svg width="560" height="173" viewBox="0 0 560 173" fill="none" xmlns="http://www.w3.org/2000/svg">
<path d="M0.606567 4.79844H122.926V28.778H24.6023V76.7371H108.529V100.717H24.6023V172.538H0.606567V4.79844Z" fill="#232DB9"/>
<path d="M178.409 47.9616V172.538H155.35V47.9616H178.409ZM154.179 0.00253296H179.58V23.9821H154.179V0.00253296Z" fill="#232DB9"/>
<path d="M328.353 172.538H305.294V71.0054H241.032V172.538H218.09V47.9616H241.032V69.9526C241.188 66.9113 241.891 64.065 243.139 61.4136C244.388 58.6842 246.026 56.3447 248.055 54.3952C250.162 52.3676 252.581 50.808 255.313 49.7162C258.044 48.5465 260.97 47.9616 264.092 47.9616H305.294C308.493 47.9616 311.498 48.5855 314.307 49.8332C317.116 51.0029 319.535 52.6406 321.564 54.7461C323.671 56.7736 325.31 59.1911 326.48 61.9984C327.729 64.8058 328.353 67.8081 328.353 71.0054V172.538Z" fill="#232DB9"/>
<path d="M443.416 4.79844L508.146 172.538H484.15L469.284 133.937H393.551L378.686 172.538H354.69L419.42 4.79844H443.416ZM402.682 109.958H460.037L431.476 36.0303L402.682 109.958Z" fill="#232DB9"/>
<path d="M558.829 47.9616V172.538H535.77V47.9616H558.829ZM534.6 0.00253296H560V23.9821H534.6V0.00253296Z" fill="#232DB9"/>
</svg>
